PathFileType  4	(X/Y/Z) C:\Users\antoi\Documents\MyRepositories\mobilecap\ResultsAnalysis
DataRate	CameraRate	NumFrames	NumMarkers	Units	OrigDataRate	OrigDataStartFrame	OrigNumFrames
100.0	100.0	7	51	mm	100.0	335	1338
Frame#	Time	r_knee			r_shank_antsup			r_ankle			r_calc			r_5meta			r_toe			L_knee			L_shank_antsup			L_ankle			L_calc			L_5meta			L_toe			r_sh2			r_sh3			r_sh4			L_sh2			L_sh3			r_thigh1			r_thigh2			r_thigh3			r_thigh4			r_thigh5			L_thigh1			L_thigh2			L_thigh3			L_thigh4			r.ASIS			r.PSIS			L.ASIS			L.PSIS			C7			R_Shoulder			L_Shoulder			R_Sternum			L_Sternum			R_humerus			R_elbow_med			R_elbow_lat			R_forearm			R_wrist_radius			R_wrist_ulna			L_humerus			L_elbow_med			L_elbow_lat			L_forearm			L_wrist_radius			L_wrist_ulna			R_HJC			L_HJC			R_HJC_reg			L_HJC_reg			
		X1	Y1	Z1	X2	Y2	Z2	X3	Y3	Z3	X4	Y4	Z4	X5	Y5	Z5	X6	Y6	Z6	X7	Y7	Z7	X8	Y8	Z8	X9	Y9	Z9	X10	Y10	Z10	X11	Y11	Z11	X12	Y12	Z12	X13	Y13	Z13	X14	Y14	Z14	X15	Y15	Z15	X16	Y16	Z16	X17	Y17	Z17	X18	Y18	Z18	X19	Y19	Z19	X20	Y20	Z20	X21	Y21	Z21	X22	Y22	Z22	X23	Y23	Z23	X24	Y24	Z24	X25	Y25	Z25	X26	Y26	Z26	X27	Y27	Z27	X28	Y28	Z28	X29	Y29	Z29	X30	Y30	Z30	X31	Y31	Z31	X32	Y32	Z32	X33	Y33	Z33	X34	Y34	Z34	X35	Y35	Z35	X36	Y36	Z36	X37	Y37	Z37	X38	Y38	Z38	X39	Y39	Z39	X40	Y40	Z40	X41	Y41	Z41	X42	Y42	Z42	X43	Y43	Z43	X44	Y44	Z44	X45	Y45	Z45	X46	Y46	Z46	X47	Y47	Z47	X48	Y48	Z48	X49	Y49	Z49	X50	Y50	Z50	X51	Y51	Z51	

335	3.34000000	-148.18410	476.51400	-378.14555	-115.19384	376.19830	-384.67061	-276.47050	90.38846	-389.98228	-337.07975	55.79632	-441.90183	-161.85233	45.01861	-344.11005	-127.10243	77.27071	-394.84217	-130.29349	507.52311	-783.37579	-94.42701	416.79063	-786.08010	-248.65365	115.11012	-799.01925	-319.83034	80.66060	-743.17640	-158.63331	40.34073	-847.67785	-102.65813	61.07432	-798.69989	-153.93688	269.19366	-386.71323	-175.99517	395.50930	-344.32270	-220.17181	290.45025	-341.30603	-171.48578	456.02738	-812.52759	-212.07628	342.55920	-828.86217	-258.80856	732.96972	-360.17575	-191.92918	646.69670	-372.63413	-218.83520	592.41181	-344.05998	-346.40244	661.36317	-354.00493	-269.05888	573.69273	-364.68993	-215.25919	740.19637	-745.73396	-121.01873	636.86825	-749.65204	-292.72990	676.36301	-789.96023	-204.45457	575.66255	-783.96438	-256.65764	839.84746	-422.35899	-428.50904	948.88600	-509.15932	-245.16573	843.66960	-674.74684	-419.76440	949.73490	-604.66208	-162.64714	1328.04245	-510.03404	-88.67190	1264.50848	-353.80538	-72.52168	1268.11219	-646.44675	-77.64971	1209.62002	-487.78898	-72.87983	1214.86230	-528.53698	-10.44857	1183.19555	-308.39779	61.87635	981.55513	-328.76359	73.75353	1000.81597	-262.59808	143.81719	1060.60791	-281.96891	257.66948	1132.89606	-380.38671	282.28122	1104.86217	-347.20048	9.36542	1184.19374	-698.46624	82.01972	995.81893	-676.11954	100.29605	1026.94941	-750.02851	156.55689	1076.33447	-730.57834	281.70651	1149.41834	-636.95424	305.17910	1116.38692	-669.54144	-364.72700	791.09652	-453.60857	-353.51404	794.15303	-642.81446	-354.01780	797.28257	-467.32274	-338.81221	798.75866	-633.38906	
336	3.35000000	-147.76460	475.72042	-378.21603	-114.43582	375.60542	-384.90438	-276.59018	90.35709	-389.98348	-337.11182	55.75343	-441.95174	-161.95315	45.32406	-344.14935	-127.22455	77.61421	-394.95033	-130.38251	507.09341	-783.38336	-94.28433	416.24730	-786.09084	-248.88798	114.77533	-798.98202	-319.94478	80.48866	-743.59256	-158.68156	40.28767	-847.69151	-102.79417	61.09082	-798.72556	-153.44626	268.74678	-387.08165	-175.03533	395.03509	-344.21722	-219.40778	290.10361	-341.30613	-171.29895	455.58120	-812.69781	-212.06664	342.06730	-828.75653	-262.33642	730.21002	-359.30912	-192.73733	646.10136	-372.35278	-220.18117	589.75846	-344.45342	-348.83382	657.30028	-354.17683	-270.34412	570.73117	-364.75967	-218.72846	738.37432	-745.32385	-123.09156	636.76664	-749.63451	-295.08610	673.49443	-789.89923	-205.20667	574.08631	-783.80567	-259.96618	834.50332	-422.39831	-430.82213	945.12154	-509.07557	-248.63416	838.29287	-674.86287	-422.01993	945.96185	-604.71210	-159.96929	1320.55259	-509.12856	-86.05757	1256.17555	-353.27746	-70.11106	1259.67966	-645.38016	-76.20055	1201.06390	-486.97587	-71.29719	1206.28386	-527.82260	-7.85449	1175.47864	-308.27821	65.72638	974.35750	-328.94380	77.90319	993.84366	-262.96203	146.27227	1055.45719	-283.04019	256.34300	1131.43378	-382.89574	282.27053	1104.17528	-350.09732	11.80812	1176.00596	-697.07027	84.75528	987.88565	-674.19025	102.95454	1018.98131	-748.54600	157.65572	1069.79041	-728.56417	279.33193	1146.74598	-633.83632	304.12993	1114.52241	-665.95909	-368.50212	786.76782	-453.65302	-357.35754	789.76909	-642.86380	-357.82277	792.75032	-467.44883	-342.53487	794.20947	-633.55353	
337	3.36000000	-147.61344	474.59364	-378.06329	-113.73021	375.09417	-385.14514	-276.80755	90.46450	-389.85192	-337.16743	55.65789	-441.92758	-162.08337	45.68954	-344.06375	-127.42135	78.10809	-395.09791	-130.51119	506.58942	-783.49964	-94.16687	415.75727	-786.25315	-249.05698	114.50306	-799.05634	-320.20363	80.06976	-743.76486	-158.73320	40.22856	-847.76907	-102.91114	61.11536	-798.77590	-153.03986	268.29656	-387.45142	-174.20292	394.69803	-344.12759	-219.04845	289.48584	-341.30229	-171.15229	455.19386	-812.79454	-212.10316	341.79962	-828.80130	-265.72372	727.61070	-358.49303	-194.13129	645.06052	-372.10759	-221.35547	586.96306	-345.38827	-351.16959	653.50486	-354.21098	-271.68306	568.28493	-364.51139	-221.94133	736.75997	-745.43947	-124.89313	636.45050	-749.31684	-297.35352	670.78377	-790.04567	-206.02639	572.73151	-783.93819	-263.17664	829.28203	-422.32660	-433.03965	941.39864	-508.93131	-251.94031	832.99092	-675.02864	-424.22856	942.33904	-604.67922	-157.43120	1313.19594	-508.24025	-83.50596	1247.97269	-352.78209	-67.74616	1251.26769	-644.30847	-74.81283	1192.72790	-486.27283	-69.85235	1197.88016	-527.22047	-5.25643	1167.77519	-308.20897	69.50147	966.94814	-329.06602	81.85843	986.82239	-263.25942	148.49565	1050.16107	-284.09259	254.83348	1129.54212	-385.30165	281.96376	1103.09994	-352.75167	14.06921	1167.87569	-695.63838	86.96051	979.91324	-672.53692	105.36477	1010.99295	-747.00446	158.62468	1063.18572	-726.81246	276.71477	1143.73607	-630.82689	302.82435	1112.21289	-662.50526	-372.15608	782.53534	-453.65062	-361.08393	785.49424	-642.86636	-361.46608	788.12784	-467.49045	-346.16663	789.76075	-633.74600	
338	3.37000000	-147.59242	473.69974	-378.01161	-113.11944	374.60241	-385.46861	-277.04869	90.49523	-389.78062	-337.23372	55.51430	-441.85945	-162.26776	46.10116	-343.89114	-127.71426	78.69165	-395.16638	-130.67033	506.05459	-783.62736	-94.10192	415.36521	-786.51559	-249.19961	114.27476	-799.19253	-320.46475	79.62547	-743.84892	-158.77534	40.16810	-847.88250	-103.01358	61.13946	-798.80650	-152.78454	267.83760	-387.79805	-173.51267	394.35822	-344.19996	-219.10677	288.74413	-341.21119	-171.06415	454.86257	-812.84250	-212.15014	341.61950	-828.89353	-268.84069	725.16285	-358.12137	-196.31837	643.48572	-371.92470	-222.61710	584.64148	-346.07755	-353.42980	649.94396	-354.16502	-272.93350	566.11287	-364.27714	-224.99827	735.16716	-745.58102	-126.46251	635.97345	-748.97430	-299.47507	668.13038	-790.18994	-206.90672	571.45307	-784.26817	-266.30517	824.20445	-422.18127	-435.09661	937.74828	-508.62286	-255.09377	827.81464	-675.27034	-426.36775	938.80382	-604.48829	-154.95000	1305.96855	-507.51773	-80.96737	1239.90218	-352.35143	-65.41134	1242.86223	-643.23074	-73.41432	1184.52243	-485.66560	-68.47929	1189.55654	-526.60438	-2.66157	1160.10861	-308.26079	73.15423	959.49647	-329.20495	85.59888	979.80714	-263.51320	150.54316	1044.75151	-285.17295	253.16974	1127.19135	-387.65370	281.43968	1101.60436	-355.23160	16.18667	1159.72748	-694.33959	88.70370	971.80963	-671.34507	107.52266	1002.96386	-745.36800	159.53421	1056.40243	-725.14671	273.91203	1140.35235	-627.89410	301.26808	1109.62418	-659.44926	-375.64043	778.39212	-453.58024	-364.69858	781.35066	-642.80361	-364.93673	783.59441	-467.39251	-349.77458	785.42807	-633.91310	
339	3.38000000	-147.38139	473.41052	-378.21507	-112.63873	374.06311	-385.81168	-277.25447	90.16509	-390.14298	-337.28836	55.35824	-441.78897	-162.45548	46.50084	-343.77014	-128.01629	79.31337	-395.15458	-130.83901	505.55743	-783.64014	-94.04951	415.05442	-786.73929	-249.39106	114.05088	-799.39021	-320.63221	79.32841	-744.00333	-158.81114	40.11763	-847.95747	-103.11986	61.14403	-798.81259	-152.61650	267.34301	-388.09453	-172.89710	393.95542	-344.40689	-218.94131	288.26442	-341.33216	-170.98040	454.58405	-813.00282	-212.16887	341.42231	-828.96364	-271.72481	722.91111	-358.33880	-198.44383	642.08250	-371.93162	-223.87838	582.92971	-346.19747	-355.54083	646.52497	-354.14547	-273.92644	563.84217	-364.43679	-228.01402	733.43272	-745.27975	-128.21165	635.45516	-748.75130	-301.47806	665.48558	-790.19669	-207.72886	570.06590	-784.47061	-269.20423	819.23107	-422.12851	-436.96301	934.11988	-508.13312	-258.10199	822.70634	-675.29863	-428.35863	935.19571	-604.05268	-152.48689	1298.79423	-506.97504	-78.44745	1231.87061	-352.03278	-63.15547	1234.60559	-642.19739	-72.07860	1176.37801	-485.04324	-67.14114	1181.37016	-525.84795	-0.13979	1152.50801	-308.28582	76.51106	952.14384	-329.37579	89.13131	972.80214	-263.81158	152.47452	1039.19502	-286.26399	251.40345	1124.39806	-389.91316	280.73855	1099.63592	-357.72373	18.19200	1151.64744	-693.07432	90.32471	963.51642	-670.53372	109.49200	994.99848	-743.89917	160.25067	1049.39629	-723.39066	270.96743	1136.57540	-625.11924	299.50046	1106.74357	-656.73442	-378.83804	774.27787	-453.34890	-368.13673	777.23187	-642.58604	-368.12054	779.31344	-467.24756	-353.17671	781.18191	-633.83675	
340	3.39000000	-146.81663	473.43452	-378.45384	-112.19482	373.51924	-385.99187	-277.40524	89.60378	-390.83741	-337.35342	55.22380	-441.74968	-162.60040	46.82496	-343.81289	-128.20505	79.89944	-395.16229	-131.01917	505.09928	-783.53213	-93.93175	414.72611	-786.81984	-249.63201	113.82438	-799.57686	-320.74686	79.10365	-744.15225	-158.86013	40.09873	-847.99684	-103.21653	61.13820	-798.80442	-152.46552	266.92123	-388.25609	-172.35041	393.64882	-344.58773	-218.32617	288.18162	-341.71424	-170.80892	454.36681	-813.26590	-212.11635	341.24666	-829.02793	-274.52105	720.82473	-358.73464	-200.22534	641.02423	-372.04535	-224.88574	581.48546	-346.14366	-357.40253	643.20541	-354.08811	-274.65839	561.59347	-364.67890	-230.94687	731.60030	-744.85227	-130.10626	634.81924	-748.36671	-303.43119	662.91974	-790.22006	-208.44600	568.57661	-784.45032	-271.79312	814.37930	-422.22515	-438.69711	930.47698	-507.59785	-260.95187	817.67663	-675.13093	-430.22247	931.54915	-603.46341	-150.11986	1291.62405	-506.33310	-76.03063	1223.92767	-351.77612	-61.07686	1226.55496	-641.15776	-70.86248	1168.37789	-484.43493	-65.90048	1173.44288	-525.17791	2.26834	1145.04368	-308.25651	79.59129	944.91122	-329.58329	92.46460	965.84681	-264.15193	154.20188	1033.56258	-287.28674	249.57089	1121.22161	-392.06505	279.86164	1097.24226	-360.20303	20.07686	1143.73711	-691.76529	91.86439	955.31956	-669.67216	111.29306	987.13761	-742.62490	160.73393	1042.34879	-721.74920	267.90221	1132.53537	-622.59512	297.58173	1103.42471	-654.02722	-381.72040	770.19786	-453.02259	-371.35787	773.12767	-642.27887	-370.97177	775.16498	-467.17925	-356.25950	777.02633	-633.60494	
341	3.40000000	-146.24970	473.01265	-378.58077	-111.68051	373.06200	-385.97775	-277.51507	89.25558	-391.29651	-337.46582	55.10875	-441.72464	-162.72774	47.09263	-343.97346	-128.32104	80.37074	-395.23214	-131.18386	504.68751	-783.40617	-93.72250	414.38188	-786.78644	-249.83881	113.64453	-799.66819	-320.84776	78.91023	-744.23524	-158.91489	40.09779	-848.02690	-103.29452	61.14750	-798.79386	-152.34764	266.65108	-388.24459	-171.92028	393.50783	-344.68643	-217.96199	288.23693	-341.92884	-170.51146	454.19754	-813.42873	-211.99573	341.11466	-829.05720	-277.28041	718.74702	-358.81666	-201.93250	640.01747	-372.12830	-225.62654	580.14388	-346.10682	-358.99564	640.01708	-353.92299	-275.18349	559.57813	-364.60127	-233.76088	729.77296	-744.67467	-131.68346	634.15983	-747.96875	-305.32545	660.43542	-790.30829	-209.15674	567.11554	-784.36650	-274.22238	809.75203	-422.26756	-440.33950	926.85585	-507.13319	-263.62653	812.84150	-675.10219	-431.97984	928.00365	-602.96223	-147.93397	1284.50127	-505.43872	-73.76518	1216.19025	-351.49512	-59.23042	1218.67247	-640.18780	-69.69887	1160.63123	-483.95430	-64.78961	1165.69196	-524.83331	4.58296	1137.73880	-308.36379	82.51670	937.74683	-329.65373	95.57624	959.05839	-264.36852	155.67259	1027.97555	-288.22324	247.69969	1117.71570	-394.15438	278.88395	1094.53294	-362.51265	21.80744	1135.95074	-690.56366	93.12016	947.40993	-668.61200	112.84609	979.33827	-741.36084	161.06351	1035.43294	-720.33594	264.74158	1128.30584	-620.27312	295.52832	1099.68637	-651.19970	-384.39713	766.24139	-452.75103	-374.35567	769.14186	-642.02518	-373.64392	770.97979	-467.13646	-359.12930	772.97278	-633.52219	
